<?xml version="1.0" encoding="UTF-8" standalone="no"?>
<!DOCTYPE svg PUBLIC "-//W3C//DTD SVG 1.1//EN" "http://www.w3.org/Graphics/SVG/1.1/DTD/svg11.dtd">
<svg width="100%" height="100%" viewBox="0 0 2000 2000" version="1.1" xmlns="http://www.w3.org/2000/svg" xmlns:xlink="http://www.w3.org/1999/xlink" xml:space="preserve" xmlns:serif="http://www.serif.com/" style="fill-rule:evenodd;clip-rule:evenodd;stroke-linejoin:round;stroke-miterlimit:2;">
    <g transform="matrix(1.217544,0,0,1.070577,326.837218,353.042509)">
        <ellipse cx="832.328" cy="291.711" rx="328.53" ry="373.63" style="fill:white;"/>
    </g>
    <g transform="matrix(3.669209,0,0,3.669209,-2347.879403,-2498.775982)">
        <path d="M667.141,755.357C667.141,734.924 683.14,718.197 703.285,717.029L707.792,717.029C727.937,718.197 743.936,734.924 743.936,755.357L743.936,968.992C743.936,1008.13 744.888,1033.623 746.792,1045.47C750.177,1065.991 758.269,1081.857 771.068,1093.07C783.314,1103.798 799.288,1109.394 818.991,1109.857L818.991,1190.137C781.566,1189.568 752.158,1182.441 730.766,1168.754C708.447,1154.474 692.263,1134.376 682.214,1108.46C672.165,1082.545 667.141,1034.786 667.141,965.184L667.141,755.357Z"/>
    </g>
    <g>
        <path d="M780.466,272.785C780.466,195.037 843.574,131.915 921.307,131.915L1759.159,131.915C1836.891,131.915 1900,195.037 1900,272.785L1900,1867.982L1605.667,1867.982L1605.667,1251.449L1074.799,1251.449L1074.799,1867.982L780.466,1867.982L780.466,272.785ZM1340.233,359.4C1157.805,359.4 1009.696,496.488 1009.696,665.342C1009.696,834.196 1157.805,971.284 1340.233,971.284C1522.661,971.284 1670.769,834.196 1670.769,665.342C1670.769,496.488 1522.661,359.4 1340.233,359.4Z"/>
    </g>
    <g transform="matrix(-1.390475,0,0,1.499227,2372.53329,-736.808091)">
        <ellipse cx="742.408" cy="935.248" rx="129.003" ry="119.645"/>
        <g transform="matrix(-0.719179,0,0,0.66701,1706.275405,491.458583)">
        </g>
    </g>
    <g transform="matrix(0.98767,0,0,1.012094,1.146418,-1.904844)">
        <path d="M234.363,132.457C237.133,132.3 239.924,132.221 242.735,132.221C245.545,132.221 248.336,132.3 251.106,132.457L234.363,132.457Z"/>
    </g>
</svg>
